<?xml version="1.0" encoding="utf-8"?>
<svg xmlns="http://www.w3.org/2000/svg" viewBox="0 0 16 16" width="24" height="24">
  <path d="M7.5 4C2.105469 4 0.046875 8.289063 0.046875 8.289063L-0.0546875 8.5L0.046875 8.710938C0.046875 8.710938 2.105469 13 7.5 13C12.894531 13 14.953125 8.710938 14.953125 8.710938L15.050781 8.5L14.953125 8.289063C14.953125 8.289063 12.894531 4 7.5 4 Z M 7.5 5C9.4375 5 11 6.5625 11 8.5C11 10.4375 9.4375 12 7.5 12C5.5625 12 4 10.4375 4 8.5C4 6.5625 5.5625 5 7.5 5 Z M 3.941406 5.777344C3.359375 6.535156 3 7.472656 3 8.5C3 9.527344 3.359375 10.464844 3.941406 11.222656C2.023438 10.269531 1.242188 8.753906 1.117188 8.5C1.242188 8.246094 2.023438 6.730469 3.941406 5.777344 Z M 11.058594 5.777344C12.976563 6.730469 13.757813 8.246094 13.882813 8.5C13.757813 8.753906 12.976563 10.269531 11.058594 11.222656C11.640625 10.464844 12 9.527344 12 8.5C12 7.472656 11.640625 6.535156 11.058594 5.777344 Z M 7.5 7C6.671875 7 6 7.671875 6 8.5C6 9.328125 6.671875 10 7.5 10C8.328125 10 9 9.328125 9 8.5C9 7.671875 8.328125 7 7.5 7Z" fill="#818181" />
</svg>