<?xml version="1.0" encoding="utf-8"?>
<svg xmlns="http://www.w3.org/2000/svg" viewBox="0 0 48 48" width="20" height="20">
  <path d="M12 6C8.7099679 6 6 8.7099679 6 12L6 36C6 39.290032 8.7099679 42 12 42L29 42C31.776017 42 34.247059 40.180505 34.9375 37.498047 A 2.0004892 2.0004892 0 1 0 31.0625 36.501953C30.864941 37.269495 29.951983 38 29 38L12 38C10.872032 38 10 37.127968 10 36L10 12C10 10.872032 10.872032 10 12 10L29 10C29.951983 10 30.864941 10.730505 31.0625 11.498047 A 2.0004892 2.0004892 0 1 0 34.9375 10.501953C34.247059 7.8194949 31.776017 6 29 6L12 6 z M 33.978516 15.980469 A 2.0002 2.0002 0 0 0 32.585938 19.414062L35.171875 22L17 22 A 2.0002 2.0002 0 1 0 17 26L35.171875 26L32.585938 28.585938 A 2.0002 2.0002 0 1 0 35.414062 31.414062L41.414062 25.414062 A 2.0002 2.0002 0 0 0 41.414062 22.585938L35.414062 16.585938 A 2.0002 2.0002 0 0 0 33.978516 15.980469 z" fill="#fff" />
</svg>
